HIERARCHY
ROOT Hips
{
  OFFSET 0.0 0.0 0.0
  CHANNELS 6 XPOSITION YPOSITION ZPOSITION ZROTATION XROTATION YROTATION 
  JOINT RightUpLeg
  {
    OFFSET -0.089458038 -0.086670642 0.001016508
    CHANNELS 3 ZROTATION XROTATION YROTATION 
    JOINT RightLeg
    {
      OFFSET 1.524e-006 -0.44256706 0.04075049
      CHANNELS 3 ZROTATION XROTATION YROTATION 
      JOINT RightFoot
      {
        OFFSET 0.001562862 -0.419119812 -0.041630854
        CHANNELS 3 ZROTATION XROTATION YROTATION 
        End Site
        {
          OFFSET 7.5692e-005 -0.04415155 0.084991702
        }
      }
    }
  }
  JOINT Spine
  {
    OFFSET 0.0 0.11890502 0.0
    CHANNELS 3 ZROTATION XROTATION YROTATION 
    JOINT Spine1
    {
      OFFSET 0.0 0.256575052 0.001270508
      CHANNELS 3 ZROTATION XROTATION YROTATION 
      End Site
      {
        OFFSET -0.002899918 0.215084406 0.0252476
      }
      JOINT RightArm
      {
        OFFSET -0.16272758 -0.05365633 0.001021842
        CHANNELS 3 ZROTATION XROTATION YROTATION 
        JOINT RightForeArm
        {
          OFFSET -0.263648698 -0.000263906 -0.014099794
          CHANNELS 3 ZROTATION XROTATION YROTATION 
          End Site
          {
            OFFSET -0.220319092 0.001914652 0.010174732
          }
        }
      }
      JOINT LeftArm
      {
        OFFSET 0.16272758 -0.05365633 0.001020826
        CHANNELS 3 ZROTATION XROTATION YROTATION 
        JOINT LeftForeArm
        {
          OFFSET 0.26260552 -0.000263144 -0.01410081
          CHANNELS 3 ZROTATION XROTATION YROTATION 
          End Site
          {
            OFFSET 0.220897958 0.001915922 0.01017524
          }
        }
      }
    }
  }
  JOINT LeftUpLeg
  {
    OFFSET 0.089458038 -0.086670642 0.001016508
    CHANNELS 3 ZROTATION XROTATION YROTATION 
    JOINT LeftLeg
    {
      OFFSET -3.048e-006 -0.442569346 0.040725598
      CHANNELS 3 ZROTATION XROTATION YROTATION 
      JOINT LeftFoot
      {
        OFFSET -0.002532888 -0.41911778 -0.041605708
        CHANNELS 3 ZROTATION XROTATION YROTATION 
        End Site
        {
          OFFSET -0.00040005 -0.044151042 0.084991194
        }
      }
    }
  }
}
MOTION
Frames: 9
Frame Time: 0.033333
-0.15520416 0.9591065873 1.9942429 -4.18706689755 3.83838830174 -144.180799114 -7.75968143963 7.15223557759 11.8909606327 -0.270333257779 20.1841703465 -0.573735089868 2.12507611614 -43.8341050364 0.0529564043062 -5.03050219872 6.31444542777 -2.81267744974 5.68325441307 2.03642751779 -4.04155654747 72.4553707155 -11.9778483229 7.1001541045 10.1678584381 18.8497631186 1.40073668909 -82.118496957 -16.4183557929 -16.4175908117 -14.4261091403 47.7328043354 7.67030414547 9.74221983208 -9.80675231313 4.35536147804 1.47978449607 11.0630315685 -3.29520149974 0.862970602691 -31.091710951 -0.0343320859353 
-0.18641822 0.9562973473 1.99594216 -5.01457846644 4.15007971565 -144.37562343 -9.58072598557 7.00693397517 12.2681356315 -0.362959507507 23.9564787025 -1.37485816954 4.44776582666 -42.5332340373 0.136927737138 -5.90588400218 6.84303846339 -2.81033597552 6.39039328936 2.25540295569 -4.21036766102 71.960987963 -12.6008973252 6.48891364549 9.99869599674 17.5230313157 1.60646454821 -82.7655412677 -16.5619212466 -16.7654779594 -14.2280857346 47.25619032 7.62279591093 8.06560988142 -9.51264265992 3.51073473575 1.10598243678 13.7577264649 -1.8860288867 -0.228226182083 -28.6121115181 0.0331479719241 
-0.21631656 0.9542374073 1.99792082 -5.7387522614 4.39593109416 -144.548973632 -11.0271875895 5.71766405234 11.9102166435 -0.497484298717 29.2186169485 -2.27693363294 5.79585733862 -39.3630153944 0.0125461895577 -6.6279340352 7.39996696567 -2.68346606546 6.83316755938 2.17818041005 -4.18562956962 72.0053773625 -13.5370806189 5.68555191796 9.69759820623 16.9827428618 1.54990236431 -83.2850044748 -16.5014501668 -17.4545620843 -14.1285997605 47.6278516486 7.66374374877 6.44586168249 -9.30007009748 3.20679494622 0.564995649382 16.4507394273 -1.19054316691 -0.935566762388 -28.3495761219 0.105787437289 
-0.24449024 0.9528531073 2.00027286 -6.06689077083 4.71580251337 -145.137694957 -11.6660638477 3.16171633803 11.2832001551 -0.855327887814 35.5523264979 -4.53339718894 4.77043634277 -33.6766643443 -0.250787310767 -6.53365821474 8.04610200738 -2.38731461257 6.58127914741 1.59805082237 -3.81608645344 72.4753353585 -14.4709749454 4.72555986549 9.36452830023 17.074929925 1.36570891771 -83.3639682918 -16.0567894839 -18.020240059 -14.3258163501 48.735599049 7.78282382808 5.29722919666 -8.94598626072 3.70310872127 0.0639588252029 18.8279782302 -0.849138989374 -1.61802699126 -29.6551138478 0.165473925805 
-0.270891 0.9522892273 2.00228454 -6.23162938408 5.20151946337 -145.936622184 -11.5069042183 0.0464733508297 10.7276035397 -1.48516689858 41.9004545767 -8.38766013098 2.26791394126 -27.2299749282 -0.260915574172 -6.16235034844 8.82817830414 -2.06042005135 6.20965581175 0.847110689995 -3.39527145504 73.0792128736 -14.8143148946 4.0792557766 9.29396476214 17.5054196729 1.01532586953 -82.7713264379 -15.0174976545 -18.0309805314 -14.9925008697 49.3681531133 7.84482060141 4.58164777968 -8.07984314188 4.45460796866 -0.630734245792 20.3950558522 -0.437208146096 -2.16388482411 -31.2629711143 0.19291198298 
-0.2959989 0.9527413473 2.0030948 -6.47131011357 5.73895417887 -146.223940922 -10.8110906494 -2.74047893512 9.9895418357 -2.16290981461 47.1153893854 -11.9101645633 0.390706057112 -23.6866076831 -0.0517604842063 -6.19994627095 9.51747245744 -1.98807618176 6.32119749665 0.393522763093 -3.35907934985 73.786834132 -14.5087168632 4.03475069085 9.53861701556 18.3970615955 0.40995208945 -81.6264091481 -13.5998210291 -17.5961621511 -15.9280865218 48.8661068885 7.77037068568 3.85788635739 -6.75869843374 4.66982381431 -1.54009378578 21.0577959376 -0.0367545252493 -2.12953622966 -32.622499778 0.171328758625 
-0.32052768 0.9544964873 2.00255886 -6.62399899246 6.17590870083 -145.593268574 -9.60652617139 -4.88614743127 8.88504902049 -2.52765536322 50.3884228658 -13.0161864871 -0.185526627496 -24.2945115947 0.0378520779519 -6.41099655499 9.81843449793 -2.30051315351 6.73408371264 0.327783579714 -3.78476192525 74.7330748792 -14.0356750368 4.16206968585 9.74826369572 19.5653961888 0.0386305327543 -80.4396023081 -12.4939416855 -17.3873632682 -16.6363907991 48.0702293408 7.66872807932 2.94199534229 -5.36093821303 4.40108874076 -2.18483578906 21.0514284937 -0.157191214199 -1.3449808944 -33.670660608 0.116913682044 
-0.34451036 0.9567469273 2.00110598 -6.48518991173 6.49092684375 -144.334355427 -7.80375579657 -6.62424530616 7.91598178105 -2.42327278379 51.398242429 -11.8503346675 0.156554432461 -26.7060157491 -0.0165673341982 -6.30254595757 9.75644796989 -2.80175341594 7.02136701866 0.397842751021 -4.36490538674 75.8667906588 -13.7603441349 3.86723432504 9.58063036292 20.3069669025 0.50818619129 -79.7230266717 -12.2176229675 -17.9569976299 -16.8108491985 48.0771278318 7.66585086213 2.04938822862 -4.23250345034 3.96081944261 -2.38238428321 20.9132469366 -0.65612600764 -0.0282446698324 -34.4821041569 0.0575031224985 
-0.36759388 0.9583014073 1.99912478 -6.17752745566 6.71000857647 -142.974150575 -5.58035761323 -8.2486128474 7.7299487724 -2.12167446849 50.4464897191 -10.4539409115 0.992098317158 -28.5309739934 -0.108245444946 -5.92306235483 9.54987914373 -3.20901753246 7.11153149211 0.407765681864 -4.79872186367 76.9411111133 -13.6047071756 3.23438400127 9.22117202106 20.3028978173 1.50129265504 -79.6075213427 -12.6759585429 -19.1847856049 -16.5243620364 48.7882495622 7.75045129274 1.30323146982 -3.38828566563 3.55422105609 -2.4207210678 20.9642189309 -1.15357103277 1.50391480735 -35.2064149825 0.0119939247406 
